# xmcd
#
# Track frame offsets: 
#        150
#        13758
#        29633
#        42128
#        58129
#        74179
#        95073
#        108733
#        128814
#        147697
#        167227
#        181657
#        192340
#        209817
#        221749
#
# Disc length: 3179 seconds
#
# Revision: 0
# Processed by: cddbd v1.4PL0 Copyright (c) Steve Scherf et al.
# Submitted via: ExactAudioCopy v0.90b4
#
DISCID=fc0c690f
DTITLE=Luther Kent - Down In New Orleans
DYEAR=1999
DGENRE=New Orleans Blues
TTITLE0=Down In New Orleans
TTITLE1=21 And Legal
TTITLE2=Read The Signs
TTITLE3=Chub Chub
TTITLE4=China Blue
TTITLE5=Cuddy Shark Blues
TTITLE6=I Got Lost
TTITLE7=Electronic Banking
TTITLE8=In Fear Of The Blues
TTITLE9=You Got My Number
TTITLE10=Road Signs
TTITLE11=Woman And Whiskey
TTITLE12=Midnight Special
TTITLE13=Fast Eddie
TTITLE14=Too Many Children
EXTD=
EXTT0=
EXTT1=
EXTT2=
EXTT3=
EXTT4=
EXTT5=
EXTT6=
EXTT7=
EXTT8=
EXTT9=
EXTT10=
EXTT11=
EXTT12=
EXTT13=
EXTT14=
PLAYORDER=
